<svg width="640" height="420" viewBox="0 0 640 420" fill="none" xmlns="http://www.w3.org/2000/svg">
  <defs>
    <linearGradient id="mapbg" x1="88" y1="50" x2="533" y2="362" gradientUnits="userSpaceOnUse">
      <stop stop-color="#F1F8FF"/>
      <stop offset="0.55" stop-color="#F7FCF4"/>
      <stop offset="1" stop-color="#FFF8EF"/>
    </linearGradient>
  </defs>
  <rect width="640" height="420" rx="36" fill="url(#mapbg)"/>
  <path d="M74 91C151 110 200 145 252 154C310 165 388 149 463 114C518 88 558 83 592 91" stroke="#D7ECFF" stroke-width="18" stroke-linecap="round"/>
  <path d="M55 314C112 258 182 233 252 241C331 250 381 302 454 310C508 316 560 295 603 257" stroke="#FFE2C1" stroke-width="18" stroke-linecap="round"/>
  <path d="M132 48V375" stroke="#EDF7CD" stroke-width="10" stroke-linecap="round" stroke-dasharray="1 22"/>
  <path d="M326 34V386" stroke="#EDF7CD" stroke-width="10" stroke-linecap="round" stroke-dasharray="1 22"/>
  <path d="M514 62V378" stroke="#EDF7CD" stroke-width="10" stroke-linecap="round" stroke-dasharray="1 22"/>
  <path d="M48 170H597" stroke="#EAF4FF" stroke-width="10" stroke-linecap="round" stroke-dasharray="1 20"/>
  <path d="M46 262H594" stroke="#EAF4FF" stroke-width="10" stroke-linecap="round" stroke-dasharray="1 20"/>
  <path d="M336 140C336 103.549 365.549 74 402 74C438.451 74 468 103.549 468 140C468 191.736 402 256 402 256C402 256 336 191.736 336 140Z" fill="#F4891D"/>
  <circle cx="402" cy="140" r="24" fill="white"/>
  <circle cx="402" cy="140" r="12" fill="#2F86D8"/>
  <rect x="86" y="290" width="212" height="82" rx="24" fill="white" fill-opacity="0.88"/>
  <text x="112" y="326" fill="#1D2A44" font-family="Outfit, Arial, sans-serif" font-size="24" font-weight="700">Peshawar</text>
  <text x="112" y="352" fill="#5F6F84" font-family="Manrope, Arial, sans-serif" font-size="16">Address placeholder for Kidz Hospital</text>
</svg>
