<svg width="64" height="64" viewBox="0 0 64 64" fill="none" xmlns="http://www.w3.org/2000/svg">
  <defs>
    <linearGradient id="g" x1="10" y1="8" x2="54" y2="56" gradientUnits="userSpaceOnUse">
      <stop stop-color="#6CCFF6"/>
      <stop offset="0.55" stop-color="#3FB7A8"/>
      <stop offset="1" stop-color="#FF8F7F"/>
    </linearGradient>
  </defs>
  <rect x="8" y="8" width="48" height="48" rx="18" fill="url(#g)"/>
  <path d="M32.1 45.2C31.9 45.2 31.8 45.2 31.6 45.1C26.3 41.9 16 34.8 16 26C16 21.1 19.9 17.4 24.6 17.4C27.5 17.4 29.8 18.8 32.1 21.3C34.3 18.8 36.6 17.4 39.6 17.4C44.3 17.4 48.1 21.1 48.1 26C48.1 34.8 37.8 41.9 32.6 45.1C32.4 45.2 32.2 45.2 32.1 45.2Z" fill="white"/>
  <path d="M32.1 24.7V33" stroke="#FF8F7F" stroke-width="3.4" stroke-linecap="round"/>
  <path d="M28 28.9H36.2" stroke="#FF8F7F" stroke-width="3.4" stroke-linecap="round"/>
</svg>
