<svg width="1200" height="630" viewBox="0 0 1200 630" fill="none" xmlns="http://www.w3.org/2000/svg">
  <defs>
    <linearGradient id="bg" x1="118" y1="56" x2="1090" y2="602" gradientUnits="userSpaceOnUse">
      <stop stop-color="#EBF9FF"/>
      <stop offset="0.5" stop-color="#F5FFFD"/>
      <stop offset="1" stop-color="#FFF4EC"/>
    </linearGradient>
    <linearGradient id="panel" x1="676" y1="128" x2="1057" y2="472" gradientUnits="userSpaceOnUse">
      <stop stop-color="#FFFFFF"/>
      <stop offset="1" stop-color="#EFFAFF"/>
    </linearGradient>
  </defs>
  <rect width="1200" height="630" rx="48" fill="url(#bg)"/>
  <circle cx="991" cy="114" r="80" fill="#FFE8A7"/>
  <circle cx="1058" cy="520" r="110" fill="#DFF8F0"/>
  <path d="M0 471C129 404 242 397 383 429C515 459 629 548 787 528C944 508 1063 402 1200 338V630H0V471Z" fill="#E6FBF4"/>
  <g filter="url(#shadow)">
    <rect x="703" y="128" width="329" height="318" rx="42" fill="url(#panel)"/>
  </g>
  <path d="M789 192H947" stroke="#D8EEF7" stroke-width="12" stroke-linecap="round"/>
  <path d="M789 241H947" stroke="#D8EEF7" stroke-width="12" stroke-linecap="round"/>
  <path d="M789 290H947" stroke="#D8EEF7" stroke-width="12" stroke-linecap="round"/>
  <path d="M866 107C866 84.3563 884.356 66 907 66C929.644 66 948 84.3563 948 107V161H866V107Z" fill="#6CCFF6"/>
  <path d="M907 96V137" stroke="white" stroke-width="10" stroke-linecap="round"/>
  <path d="M887 116H927" stroke="white" stroke-width="10" stroke-linecap="round"/>
  <text x="114" y="221" fill="#237C74" font-family="Baloo 2, Arial, sans-serif" font-size="38" font-weight="700">Premium pediatric care in Peshawar</text>
  <text x="114" y="322" fill="#1D2A44" font-family="Outfit, Arial, sans-serif" font-size="88" font-weight="800">Kidz Hospital</text>
  <text x="114" y="397" fill="#5F6F84" font-family="Manrope, Arial, sans-serif" font-size="34">Warm, reassuring care for infants, children, and families.</text>
  <text x="114" y="452" fill="#5F6F84" font-family="Manrope, Arial, sans-serif" font-size="34">Static website ready for modern pediatric hospital branding.</text>
  <circle cx="154" cy="126" r="22" fill="#FFD873"/>
  <circle cx="195" cy="100" r="13" fill="#B8F3E5"/>
  <path d="M640 208L650 231L673 241L650 251L640 274L630 251L607 241L630 231L640 208Z" fill="#FF8F7F"/>
  <defs>
    <filter id="shadow" x="681" y="112" width="373" height="362" filterUnits="userSpaceOnUse" color-interpolation-filters="sRGB">
      <feFlood flood-opacity="0" result="BackgroundImageFix"/>
      <feColorMatrix in="SourceAlpha" type="matrix" values="0 0 0 0 0 0 0 0 0 0 0 0 0 0 0 0 0 0 127 0" result="hardAlpha"/>
      <feOffset dy="10"/>
      <feGaussianBlur stdDeviation="11"/>
      <feColorMatrix type="matrix" values="0 0 0 0 0.113725 0 0 0 0 0.164706 0 0 0 0 0.266667 0 0 0 0.16 0"/>
      <feBlend mode="normal" in2="BackgroundImageFix" result="effect1_dropShadow_14_35"/>
      <feBlend mode="normal" in="SourceGraphic" in2="effect1_dropShadow_14_35" result="shape"/>
    </filter>
  </defs>
</svg>
