<svg width="520" height="580" viewBox="0 0 520 580" fill="none" xmlns="http://www.w3.org/2000/svg">
  <defs>
    <linearGradient id="bg" x1="64" y1="42" x2="468" y2="540" gradientUnits="userSpaceOnUse">
      <stop stop-color="#E9F8FF"/>
      <stop offset="0.52" stop-color="#F4FFFC"/>
      <stop offset="1" stop-color="#FFF4EC"/>
    </linearGradient>
    <linearGradient id="coat" x1="184" y1="288" x2="346" y2="520" gradientUnits="userSpaceOnUse">
      <stop stop-color="#FFFFFF"/>
      <stop offset="1" stop-color="#E8F4FD"/>
    </linearGradient>
  </defs>
  <rect width="520" height="580" rx="40" fill="url(#bg)"/>
  <circle cx="412" cy="92" r="54" fill="#FFE5A8"/>
  <circle cx="102" cy="116" r="34" fill="#DDF8F0"/>
  <path d="M0 446C92 400 180 392 264 414C348 436 421 499 520 482V580H0V446Z" fill="#E5FAF3"/>
  <rect x="156" y="300" width="208" height="212" rx="72" fill="url(#coat)"/>
  <path d="M190 508C202 426 221 368 260 368C299 368 318 426 330 508H190Z" fill="#D7E9F7"/>
  <path d="M211 310H309L328 508H192L211 310Z" fill="#FFFFFF"/>
  <path d="M237 309L260 358L283 309" fill="#2A4469"/>
  <path d="M214 255C214 197.01 261.01 150 319 150V150C376.99 150 424 197.01 424 255V328H214V255Z" fill="#1C2940"/>
  <ellipse cx="260" cy="224" rx="84" ry="92" fill="#F5C7A9"/>
  <path d="M181 245C181 190.324 225.324 146 280 146H287C341.676 146 386 190.324 386 245V255H181V245Z" fill="#1C2940"/>
  <path d="M221 242C221 266.301 238.699 286 260.5 286C282.301 286 300 266.301 300 242V225H221V242Z" fill="#EDB595"/>
  <path d="M186 516C197 452 218 406 260 406C302 406 323 452 334 516H186Z" fill="#F6FBFF"/>
  <path d="M248 310H272V404H248V310Z" fill="#6CCFF6"/>
  <path d="M221 329H299" stroke="#C9DFF0" stroke-width="4" stroke-linecap="round"/>
  <circle cx="260" cy="331" r="10" fill="#FF8F7F"/>
  <rect x="64" y="58" width="136" height="42" rx="21" fill="white" fill-opacity="0.9"/>
  <text x="88" y="86" fill="#1D2A44" font-family="Outfit, Arial, sans-serif" font-size="20" font-weight="700">Sample portrait</text>
</svg>
