<svg xmlns="http://www.w3.org/2000/svg" viewBox="0 0 480 560" role="img" aria-labelledby="title desc">
  <title>Dr Anwar Ullah</title>
  <desc>Placeholder profile image for Dr Anwar Ullah, a male pediatric hematology-oncology specialist.</desc>
  <defs>
    <linearGradient id="bg" x1="0" x2="1" y1="0" y2="1">
      <stop offset="0%" stop-color="#4c6ef5" />
      <stop offset="100%" stop-color="#7c3aed" />
    </linearGradient>
  </defs>
  <rect width="480" height="560" rx="32" fill="url(#bg)" />
  <circle cx="240" cy="170" r="100" fill="#ffffff" opacity="0.18" />
  <circle cx="240" cy="170" r="76" fill="#ffffff" />
  <path d="M170 340c0-40 36-72 70-72s70 32 70 72v48H170v-48Z" fill="#ffffff" opacity="0.9" />
  <path d="M176 328c0-18 16-34 36-34s36 16 36 34v26H176v-26Z" fill="#e2e8f0" />
  <path d="M190 232c0-20 22-38 50-38s50 18 50 38" fill="#ffffff" opacity="0.92" />
  <path d="M194 140c0-18 14-32 32-32h36c18 0 32 14 32 32v18H194v-18Z" fill="#ffffff" opacity="0.9" />
  <path d="M210 130c4-12 18-22 30-22s26 10 30 22" stroke="#4c6ef5" stroke-width="10" fill="none" stroke-linecap="round" />
  <text x="240" y="520" text-anchor="middle" fill="#ffffff" font-family="Manrope, sans-serif" font-size="24" font-weight="700">Dr Anwar Ullah</text>
  <text x="240" y="545" text-anchor="middle" fill="#ffffff" font-family="Manrope, sans-serif" font-size="16">Pediatric Hemato-Oncologist</text>
</svg>
