<svg xmlns="http://www.w3.org/2000/svg" viewBox="0 0 480 560" role="img" aria-labelledby="title desc">
  <title>Dr Mehreen Zeb</title>
  <desc>Placeholder profile image for Dr Mehreen Zeb, a female pediatric surgeon.</desc>
  <defs>
    <linearGradient id="bg" x1="0" x2="1" y1="0" y2="1">
      <stop offset="0%" stop-color="#f3a5d3" />
      <stop offset="100%" stop-color="#8b79e6" />
    </linearGradient>
  </defs>
  <rect width="480" height="560" rx="32" fill="url(#bg)" />
  <circle cx="240" cy="170" r="100" fill="#fff" opacity="0.2" />
  <circle cx="240" cy="170" r="76" fill="#fff" />
  <path d="M170 340c0-40 36-72 70-72s70 32 70 72v48H170v-48Z" fill="#fff" opacity="0.9" />
  <path d="M180 330c0-20 18-36 40-36s40 16 40 36v30H180v-30Z" fill="#f4b3e0" />
  <path d="M180 330c0 10 18 18 40 18s40-8 40-18" fill="#d98bd3" />
  <path d="M175 242c0-24 24-44 54-44s54 20 54 44" fill="#fff" />
  <path d="M190 146c0-18 14-32 32-32h36c18 0 32 14 32 32v16H190v-16Z" fill="#fff" opacity="0.85" />
  <path d="M216 132c4-14 18-24 32-24s28 10 32 24" stroke="#8b79e6" stroke-width="10" fill="none" stroke-linecap="round" />
  <text x="240" y="520" text-anchor="middle" fill="#fff" font-family="Manrope, sans-serif" font-size="24" font-weight="700">Dr Mehreen Zeb</text>
  <text x="240" y="545" text-anchor="middle" fill="#fff" font-family="Manrope, sans-serif" font-size="16">Pediatric Surgeon</text>
</svg>
